<?xml version="1.0" standalone="no"?>
<!DOCTYPE svg PUBLIC "-//W3C//DTD SVG 20010904//EN"
 "http://www.w3.org/TR/2001/REC-SVG-20010904/DTD/svg10.dtd">
<svg version="1.0" xmlns="http://www.w3.org/2000/svg"
 width="1801.000000pt" height="1801.000000pt" viewBox="0 0 1801.000000 1801.000000"
 preserveAspectRatio="xMidYMid meet">
<metadata>
Created by potrace 1.14, written by Peter Selinger 2001-2017
</metadata>
<g transform="translate(0.000000,1801.000000) scale(0.100000,-0.100000)"
fill="#000000" stroke="none">
<path d="M8787 17954 c-1 -1 -81 -5 -177 -9 -190 -7 -225 -9 -345 -19 -119
-10 -186 -16 -225 -21 -19 -3 -57 -7 -85 -9 -27 -3 -68 -8 -90 -11 -22 -3 -56
-8 -75 -10 -114 -16 -150 -21 -230 -35 -30 -5 -71 -12 -90 -15 -19 -3 -73 -13
-120 -21 -47 -9 -96 -18 -110 -20 -66 -12 -390 -87 -496 -114 -840 -219 -1661
-567 -2409 -1023 -118 -72 -435 -278 -460 -299 -5 -5 -64 -48 -130 -95 -108
-78 -333 -249 -345 -263 -3 -3 -36 -31 -75 -62 -38 -31 -83 -69 -100 -83 -16
-14 -41 -36 -55 -47 -282 -238 -653 -608 -945 -943 -291 -334 -717 -917 -858
-1175 -11 -19 -25 -42 -32 -50 -14 -17 -161 -276 -227 -400 -129 -242 -237
-467 -339 -710 -39 -91 -74 -174 -79 -185 -23 -51 -133 -355 -180 -495 -95
-287 -210 -706 -255 -930 -2 -8 -12 -60 -24 -115 -11 -55 -23 -116 -26 -135
-3 -19 -8 -46 -10 -60 -8 -40 -12 -61 -25 -140 -6 -41 -13 -86 -16 -100 -10
-58 -53 -411 -59 -480 -3 -41 -8 -100 -10 -130 -33 -385 -38 -1015 -10 -1345
1 -16 5 -73 10 -125 4 -52 9 -111 10 -130 5 -54 15 -152 20 -185 2 -16 7 -52
10 -80 14 -113 59 -407 81 -520 284 -1490 917 -2847 1869 -4010 258 -316 582
-658 880 -930 54 -49 103 -95 109 -100 53 -49 287 -244 456 -378 99 -79 216
-165 395 -289 840 -583 1815 -1031 2799 -1288 138 -36 384 -95 446 -106 14 -3
59 -12 100 -20 136 -28 378 -68 510 -84 47 -6 96 -13 110 -15 14 -2 50 -6 80
-10 30 -3 71 -7 90 -10 97 -12 270 -25 555 -41 89 -5 666 -5 765 0 191 10 318
17 350 21 19 2 67 7 105 10 124 11 221 22 355 40 14 2 48 6 75 10 28 3 118 17
200 31 661 109 1387 316 1955 557 14 6 27 11 30 12 17 6 219 94 320 140 126
58 436 217 590 303 476 265 969 605 1388 957 13 11 33 28 45 38 40 33 208 183
310 276 125 115 444 441 571 586 44 50 83 92 86 95 3 3 39 46 80 95 41 50 77
92 80 95 3 3 55 68 116 145 432 551 781 1119 1073 1747 196 423 350 830 474
1258 48 163 106 379 113 417 2 12 15 69 29 125 13 57 27 119 30 138 3 19 14
78 25 130 11 52 22 111 25 130 3 19 7 46 10 60 3 14 7 41 10 60 3 19 7 46 10
60 2 14 7 45 10 70 3 25 8 56 10 70 2 14 7 45 10 70 3 25 8 56 10 70 2 14 7
54 10 90 3 36 8 81 10 100 4 32 9 86 20 210 28 315 28 1117 0 1435 -10 111
-17 184 -21 220 -2 22 -7 63 -9 90 -7 64 -12 102 -25 195 -6 41 -13 93 -16
115 -3 22 -7 51 -10 65 -3 14 -8 42 -11 63 -4 36 -88 470 -98 510 -3 9 -7 25
-9 35 -3 15 -47 194 -61 252 -61 244 -259 851 -325 995 -5 11 -34 81 -64 155
-30 74 -68 164 -84 200 -16 36 -39 88 -52 115 -73 163 -216 444 -335 660 -103
186 -343 564 -478 755 -68 95 -259 352 -267 360 -3 3 -62 75 -132 160 -69 85
-136 167 -149 181 -13 14 -55 61 -94 105 -107 121 -207 225 -361 379 -124 124
-194 191 -339 324 -132 122 -365 314 -565 467 -189 145 -532 384 -551 384 -5
0 -9 5 -9 10 0 6 -5 10 -11 10 -6 0 -29 13 -52 29 -41 28 -251 156 -312 191
-34 19 -128 71 -225 124 -191 106 -556 280 -785 375 -55 23 -109 46 -120 51
-121 56 -615 226 -870 299 -260 75 -695 176 -889 207 -37 5 -48 7 -106 18 -14
3 -43 8 -65 11 -22 3 -51 7 -65 10 -59 9 -185 27 -214 30 -17 2 -58 6 -91 10
-60 6 -118 12 -185 20 -31 4 -74 7 -260 20 -190 13 -792 28 -803 19z m748
-318 c22 -2 78 -7 125 -10 47 -4 101 -9 120 -11 19 -2 62 -7 95 -10 124 -12
141 -14 190 -20 28 -3 77 -10 110 -15 33 -5 83 -12 110 -16 28 -3 59 -8 70
-10 10 -2 37 -6 60 -9 32 -5 358 -68 415 -80 688 -152 1337 -379 1965 -690
478 -236 858 -466 1285 -776 537 -391 992 -814 1499 -1394 15 -16 65 -77 111
-135 47 -58 87 -107 90 -110 23 -21 261 -347 355 -485 58 -85 251 -387 278
-435 11 -19 43 -75 72 -125 455 -775 813 -1739 991 -2665 2 -14 6 -36 9 -50 8
-42 24 -133 30 -170 3 -19 8 -46 10 -60 3 -14 7 -43 10 -65 6 -48 25 -191 30
-225 2 -14 6 -54 10 -90 4 -36 8 -76 10 -90 6 -42 19 -209 31 -400 16 -242 9
-922 -11 -1120 -2 -19 -6 -70 -9 -112 -4 -43 -8 -95 -11 -115 -2 -21 -7 -63
-10 -93 -10 -100 -16 -145 -21 -172 -3 -15 -7 -47 -9 -70 -3 -24 -6 -52 -9
-63 -2 -11 -7 -40 -11 -65 -3 -25 -8 -56 -11 -70 -4 -28 -60 -331 -68 -370
-13 -60 -31 -138 -78 -325 -238 -962 -674 -1935 -1237 -2755 -60 -87 -199
-281 -218 -305 -5 -5 -36 -46 -70 -91 -220 -290 -456 -558 -748 -849 -220
-220 -267 -264 -480 -448 -16 -14 -41 -35 -55 -48 -14 -12 -68 -56 -120 -98
-52 -42 -97 -79 -100 -82 -7 -9 -315 -238 -390 -290 -887 -623 -1885 -1075
-2935 -1329 -71 -18 -141 -34 -155 -36 -14 -3 -77 -16 -140 -29 -149 -30 -280
-55 -322 -60 -18 -3 -42 -6 -53 -9 -11 -2 -45 -7 -75 -11 -30 -4 -62 -9 -71
-10 -9 -2 -40 -6 -70 -10 -30 -3 -65 -8 -79 -10 -14 -2 -50 -7 -80 -10 -30 -3
-71 -7 -90 -10 -19 -3 -69 -8 -110 -11 -41 -3 -93 -7 -115 -9 -327 -26 -1139
-26 -1315 0 -14 2 -68 7 -120 10 -52 4 -102 9 -111 10 -8 2 -49 6 -90 10 -41
3 -81 8 -89 10 -8 2 -37 7 -65 10 -27 3 -61 7 -75 10 -22 4 -68 11 -140 20
-14 2 -41 6 -60 10 -19 3 -62 10 -95 16 -156 26 -430 86 -620 134 -1089 277
-2071 742 -2990 1414 -49 36 -97 71 -105 78 -8 7 -61 48 -117 91 -139 109
-290 235 -458 385 -90 81 -514 503 -590 587 -322 358 -609 730 -858 1111 -85
131 -277 444 -277 453 0 2 -22 41 -48 87 -174 302 -415 832 -555 1219 -87 240
-214 649 -253 810 -21 90 -95 422 -99 445 -3 17 -12 64 -20 105 -8 41 -17 90
-20 108 -3 17 -7 46 -10 62 -20 120 -23 140 -30 190 -3 25 -8 56 -10 70 -2 14
-6 50 -10 80 -3 30 -8 71 -10 90 -8 60 -16 147 -30 305 -23 263 -32 746 -21
1015 6 120 16 293 21 345 2 22 6 72 9 110 4 39 8 85 11 103 2 19 7 62 10 95 3
34 7 73 9 87 3 14 12 76 20 137 16 114 37 244 55 343 6 30 12 66 15 80 28 163
124 558 194 800 97 333 269 796 406 1093 20 43 36 81 36 83 0 12 218 441 291
572 409 733 928 1412 1533 2001 190 185 302 286 519 468 165 139 444 347 662
495 256 174 441 287 745 455 114 63 498 252 605 298 17 7 51 22 76 33 104 47
484 193 624 240 266 91 744 226 905 256 14 2 66 14 116 25 50 11 158 32 240
46 172 30 194 33 232 40 25 4 308 39 397 50 22 2 74 7 115 10 41 4 93 8 115
10 22 2 103 7 180 11 77 3 142 8 144 10 5 5 832 -5 886 -10z"/>
<path d="M8029 17195 c-3 -2 -17 -6 -32 -9 -44 -8 -112 -52 -151 -97 -50 -59
-85 -172 -86 -281 0 -31 -3 -36 -17 -31 -10 4 -20 10 -23 14 -12 17 -285 141
-382 173 -127 42 -295 79 -418 92 -55 5 -342 5 -370 0 -14 -3 -42 -8 -62 -10
-47 -6 -126 -47 -160 -83 -85 -90 -96 -251 -25 -389 30 -58 109 -149 161 -185
20 -13 36 -28 36 -32 0 -5 -4 -6 -8 -3 -42 26 -638 27 -857 1 -43 -5 -126 -16
-155 -20 -14 -2 -45 -7 -70 -10 -297 -43 -434 -96 -507 -198 -67 -93 -84 -221
-43 -330 12 -32 20 -60 18 -61 -1 -1 -23 -8 -48 -15 -194 -55 -443 -177 -585
-285 -69 -54 -86 -69 -168 -153 -44 -45 -91 -84 -103 -87 -39 -10 -306 -249
-534 -476 -172 -173 -316 -328 -440 -475 -23 -27 -52 -61 -63 -75 -195 -229
-464 -601 -648 -895 -24 -39 -50 -80 -56 -90 -7 -11 -22 -36 -33 -55 -11 -19
-30 -51 -42 -70 -143 -237 -378 -708 -483 -966 -20 -49 -40 -98 -45 -109 -66
-142 -215 -581 -294 -862 -81 -288 -166 -671 -191 -860 -4 -26 -16 -99 -21
-128 -2 -11 -7 -44 -10 -74 -3 -30 -7 -62 -9 -70 -2 -9 -6 -45 -10 -81 -4 -36
-9 -74 -11 -84 -2 -10 -6 -58 -9 -105 -4 -47 -8 -97 -10 -111 -18 -119 -26
-767 -12 -995 14 -222 15 -241 32 -400 11 -98 15 -132 19 -155 3 -14 7 -47 11
-75 9 -74 15 -114 26 -177 15 -88 19 -108 34 -183 8 -38 16 -81 19 -95 83
-440 293 -1099 485 -1524 15 -33 38 -86 52 -116 68 -155 268 -544 340 -663 16
-26 29 -49 29 -51 0 -7 135 -225 228 -366 181 -277 366 -526 595 -800 134
-161 302 -343 487 -529 151 -152 240 -236 445 -420 122 -110 416 -344 588
-469 202 -147 699 -472 721 -472 2 0 33 -17 67 -38 98 -59 206 -117 414 -222
163 -81 253 -123 520 -240 199 -87 583 -223 865 -306 150 -45 238 -56 305 -41
129 30 227 91 282 174 20 29 73 209 73 245 0 15 3 28 8 28 7 0 30 -62 142
-381 120 -343 188 -468 330 -606 172 -167 473 -214 672 -103 57 31 133 101
154 142 8 15 16 28 18 28 2 0 15 -17 28 -37 42 -62 98 -111 162 -142 58 -28
74 -33 156 -47 175 -30 378 40 520 178 125 123 201 269 325 628 24 69 60 170
79 225 20 55 36 101 36 102 0 2 3 3 8 3 4 0 13 -27 19 -60 24 -126 105 -251
197 -305 89 -51 287 -80 386 -56 58 14 327 100 450 143 387 136 915 372 1245
558 246 138 387 224 603 369 96 64 181 121 190 126 8 6 23 15 31 22 9 7 72 54
141 105 235 176 314 239 520 418 359 310 696 656 1009 1035 244 295 503 662
703 995 58 96 108 182 111 190 4 8 15 29 25 45 52 85 194 363 267 520 171 369
334 803 431 1151 47 169 65 236 69 254 2 8 20 85 39 170 19 85 37 166 39 180
3 14 12 63 21 110 8 47 18 99 20 115 7 46 18 118 21 135 2 8 6 38 9 65 4 28 9
61 11 75 6 36 15 117 20 180 2 30 7 76 10 103 33 257 38 855 10 1227 -8 107
-16 205 -20 230 -2 14 -6 52 -10 85 -3 33 -8 71 -9 85 -2 14 -7 52 -10 85 -4
33 -9 67 -11 75 -2 8 -7 38 -10 65 -4 28 -8 57 -10 65 -2 8 -7 31 -10 50 -3
19 -7 46 -10 60 -3 14 -7 41 -10 60 -30 185 -133 603 -219 885 -48 158 -149
451 -175 510 -5 11 -30 74 -56 140 -305 780 -799 1604 -1378 2297 -82 98 -163
193 -180 211 -18 18 -54 58 -81 88 -124 139 -423 434 -611 603 -22 20 -55 40
-74 46 -21 6 -60 36 -105 81 -178 181 -422 322 -706 410 -41 13 -77 24 -78 25
-2 2 6 29 18 60 37 100 26 223 -27 308 -67 107 -159 155 -375 196 -134 25
-176 31 -303 45 -33 4 -73 9 -90 11 -193 23 -798 22 -837 -2 -4 -3 -8 -1 -8 5
0 5 15 19 34 31 50 30 140 131 166 186 107 219 20 433 -190 469 -81 14 -94 15
-235 16 -145 2 -191 -2 -335 -27 -215 -36 -487 -136 -653 -241 -21 -13 -40
-23 -42 -21 -2 2 -4 30 -6 63 -3 70 -23 154 -49 205 -24 48 -91 107 -149 133
-52 24 -151 31 -208 15 -224 -60 -528 -377 -708 -736 -55 -110 -110 -240 -127
-302 l-10 -35 -28 76 c-15 41 -35 93 -45 114 -125 280 -245 463 -415 635 -172
174 -298 249 -431 256 -37 2 -68 1 -70 -1z m1967 -307 c34 -99 -18 -307 -171
-688 -176 -439 -219 -593 -229 -820 -2 -30 -17 -57 -77 -136 -127 -166 -298
-429 -322 -494 -3 -8 -6 14 -7 50 -3 189 -16 491 -25 565 -18 156 -15 192 29
411 61 300 205 621 382 849 69 89 195 214 264 261 89 61 135 62 156 2z m-1810
2 c69 -46 231 -211 296 -300 86 -117 153 -238 223 -395 25 -57 92 -249 99
-286 2 -13 12 -51 20 -84 49 -185 62 -337 41 -480 -8 -59 -16 -223 -20 -409
-2 -103 -6 -191 -9 -194 -3 -3 -6 0 -6 7 0 40 -215 367 -364 552 -24 30 -29
47 -32 99 -8 188 -62 378 -206 740 -68 169 -136 349 -144 380 -2 8 -14 56 -28
107 -32 117 -38 217 -18 267 15 37 16 38 57 34 25 -3 62 -19 91 -38z m-1266
-101 c198 -27 362 -75 535 -159 103 -50 263 -148 301 -184 6 -6 34 -30 62 -53
27 -24 53 -55 57 -70 4 -16 44 -120 90 -233 81 -201 158 -410 152 -416 -1 -1
-23 15 -47 37 -53 47 -233 184 -341 260 -42 30 -107 80 -145 112 -104 89 -276
199 -431 276 -157 79 -165 83 -328 146 -182 72 -238 108 -282 182 -31 53 -28
95 6 100 14 2 27 5 29 7 7 8 277 4 342 -5z m4578 -3 c21 -13 13 -60 -18 -109
-39 -62 -108 -106 -265 -168 -175 -69 -181 -71 -333 -146 -161 -80 -318 -180
-432 -277 -47 -40 -123 -98 -170 -131 -119 -82 -282 -207 -320 -245 -3 -3 -15
-13 -27 -23 l-22 -19 15 46 c34 109 47 144 143 386 115 288 108 280 283 400
218 151 458 245 728 285 90 14 396 15 418 1z m-5185 -680 c75 -4 145 -9 155
-11 9 -1 46 -6 82 -10 76 -7 86 -9 205 -29 393 -68 583 -141 863 -332 318
-217 629 -533 827 -839 21 -33 48 -73 59 -90 13 -19 -15 0 -74 51 -305 259
-618 444 -955 564 -110 39 -307 95 -375 106 -14 2 -45 9 -70 14 -101 21 -261
38 -437 45 -51 2 -116 11 -145 19 -29 9 -75 20 -103 26 -27 5 -59 11 -70 14
-25 5 -227 42 -280 51 -22 4 -49 9 -60 10 -161 28 -315 44 -475 50 -144 5
-217 21 -280 60 -87 55 -103 152 -31 189 30 16 160 49 236 60 22 4 65 11 95
16 111 18 152 22 365 35 72 4 131 8 132 9 4 3 209 -2 336 -8z m5882 -1 c66 -3
131 -8 145 -10 14 -2 54 -6 90 -10 92 -9 292 -42 364 -61 108 -28 142 -56 133
-113 -16 -102 -134 -159 -341 -166 -117 -5 -202 -10 -296 -20 -38 -4 -247 -37
-315 -50 -87 -16 -134 -25 -155 -29 -72 -13 -191 -39 -238 -52 -29 -8 -103
-17 -165 -19 -61 -2 -132 -6 -157 -9 -25 -3 -72 -8 -105 -11 -33 -3 -69 -8
-80 -10 -11 -3 -33 -7 -49 -10 -124 -20 -322 -72 -461 -122 -354 -126 -648
-299 -963 -567 l-94 -79 39 59 c143 219 252 355 432 535 140 139 296 272 410
348 274 183 420 249 691 307 198 43 290 59 390 69 36 3 79 8 95 10 17 2 91 7
165 11 74 3 136 7 137 8 3 3 213 -3 328 -9z m-6850 -620 c33 -3 119 -7 190
-10 116 -4 205 -12 213 -20 1 -1 -32 -14 -75 -29 -172 -60 -414 -193 -643
-353 -158 -110 -426 -368 -586 -563 -16 -19 -35 -41 -42 -49 -65 -68 -287
-387 -404 -581 -128 -211 -103 -162 -446 -859 -82 -167 -177 -332 -241 -416
-71 -94 -179 -137 -346 -136 -193 0 -251 41 -262 185 -8 100 5 126 135 255
125 125 178 192 308 393 67 102 258 408 343 548 5 8 38 62 73 119 35 57 73
120 84 140 12 20 55 93 96 161 41 69 114 193 163 275 49 83 112 190 142 238
29 49 53 90 53 93 0 2 27 44 60 93 70 103 187 218 298 291 170 113 449 224
647 257 17 3 31 6 33 7 1 2 35 -5 75 -15 39 -10 99 -21 132 -24z m7655 15
c372 -90 676 -266 838 -485 24 -33 103 -159 174 -280 490 -828 811 -1350 966
-1573 57 -81 125 -163 207 -245 139 -140 151 -161 142 -269 -12 -140 -66 -178
-257 -179 -133 0 -208 18 -282 66 -62 41 -212 281 -335 535 -134 277 -285 579
-314 630 -398 697 -835 1193 -1323 1500 -85 54 -257 144 -346 183 -66 29 -168
67 -182 68 -45 4 79 19 192 24 224 10 320 21 381 43 13 5 30 8 39 6 8 -2 53
-13 100 -24z m-6300 -195 c115 -7 208 -18 275 -32 24 -5 103 -21 130 -27 371
-79 861 -337 1170 -615 109 -99 294 -292 370 -386 97 -121 179 -234 173 -240
-2 -2 -42 9 -89 26 -222 80 -600 182 -754 203 -22 4 -51 8 -65 11 -112 21
-218 29 -380 30 -80 0 -178 -3 -218 -7 -73 -8 -73 -8 -175 41 -351 167 -614
218 -866 166 -157 -32 -464 -199 -652 -355 -318 -264 -552 -584 -849 -1155
-302 -582 -414 -748 -695 -1030 -208 -208 -393 -343 -611 -445 -85 -40 -215
-88 -263 -97 -14 -2 -28 -6 -32 -9 -48 -30 -449 -55 -549 -34 -25 5 -73 14
-107 20 -80 13 -150 44 -180 78 -21 24 -23 36 -22 102 4 122 14 155 57 182 47
29 66 37 105 43 89 15 274 75 405 131 237 102 433 264 617 509 143 191 206
304 450 810 274 568 568 999 925 1356 241 241 418 373 680 505 93 46 264 116
320 129 8 3 40 11 70 19 56 16 227 52 290 60 19 3 89 8 155 12 66 4 121 8 123
9 3 2 28 1 192 -10z m4943 1 c76 -3 141 -7 145 -10 4 -2 30 -6 59 -10 28 -3
57 -8 65 -10 7 -3 29 -7 48 -10 116 -17 368 -104 510 -175 367 -185 665 -440
997 -853 63 -78 363 -516 363 -530 0 -2 29 -56 65 -119 112 -196 298 -585 296
-619 -5 -92 -83 -286 -154 -384 -83 -115 -199 -213 -325 -276 l-57 -28 -33 46
c-19 26 -68 106 -111 177 -73 123 -120 208 -276 510 -235 453 -404 697 -659
951 -191 191 -392 333 -610 434 -160 73 -251 94 -406 93 -123 -1 -193 -13
-350 -57 -98 -28 -337 -130 -391 -167 -15 -11 -37 -16 -51 -14 -103 19 -175
23 -328 20 -96 -2 -186 -6 -200 -9 -14 -2 -50 -7 -80 -11 -30 -4 -62 -8 -70
-10 -8 -2 -35 -6 -60 -10 -24 -4 -47 -8 -50 -10 -3 -2 -24 -6 -48 -10 -114
-17 -461 -114 -641 -179 -41 -15 -75 -25 -77 -23 -5 5 157 219 224 297 31 36
108 117 172 180 407 408 877 667 1400 773 147 30 185 35 345 43 66 4 122 8
123 10 2 1 9 1 15 -1 7 -2 74 -6 150 -9z m-8224 -1058 c-13 -24 -246 -409
-284 -468 -12 -19 -62 -98 -110 -175 -204 -324 -236 -366 -363 -495 -140 -140
-169 -179 -202 -265 -31 -84 -32 -232 -2 -330 55 -178 171 -277 355 -300 31
-4 57 -11 57 -15 0 -7 -123 -65 -180 -85 -3 -1 -12 -4 -20 -8 -35 -14 -182
-56 -270 -77 -127 -31 -223 -81 -266 -140 -19 -25 -34 -53 -34 -62 0 -9 -4
-19 -9 -23 -15 -9 -43 -147 -45 -227 -3 -98 10 -173 40 -235 28 -59 107 -135
172 -166 23 -12 42 -25 42 -29 0 -5 -12 -27 -27 -51 -112 -177 -308 -589 -398
-837 -75 -206 -182 -585 -205 -726 -37 -226 -2 -407 94 -492 38 -33 118 -62
171 -62 66 0 153 23 233 61 66 32 100 57 165 122 45 46 107 122 137 169 52 83
78 109 66 71 -2 -10 -7 -72 -11 -138 -3 -66 -8 -154 -10 -195 -2 -41 -6 -133
-10 -205 -3 -71 -8 -157 -10 -190 -17 -246 -21 -423 -12 -490 77 -527 147
-762 260 -882 54 -57 97 -77 171 -77 l49 -1 13 -61 c33 -162 144 -324 259
-378 l35 -17 -7 -132 c-11 -206 -6 -420 12 -532 29 -174 59 -274 116 -392 71
-145 185 -233 308 -238 31 -1 55 -6 54 -11 -23 -124 -22 -323 1 -417 62 -258
226 -457 426 -518 73 -22 162 -30 221 -19 45 8 46 5 30 -91 -63 -367 7 -619
198 -708 47 -22 70 -26 146 -26 50 0 102 3 116 7 74 18 179 75 252 135 16 13
32 23 35 23 4 0 7 -26 8 -58 0 -53 11 -323 19 -507 6 -133 21 -301 30 -355 2
-14 7 -43 11 -65 22 -144 119 -352 214 -459 42 -47 143 -114 213 -140 117 -45
270 -23 380 53 53 36 137 120 180 179 17 23 35 42 42 42 16 0 165 -149 217
-217 90 -118 156 -245 223 -428 20 -55 43 -117 52 -138 9 -20 14 -39 12 -41
-2 -3 -83 24 -179 60 -167 61 -200 74 -297 116 -23 10 -44 18 -47 18 -13 0
-319 141 -477 220 -470 234 -829 457 -1269 784 -74 56 -141 107 -148 114 -8 7
-30 25 -50 40 -21 15 -39 29 -42 32 -4 4 -134 114 -207 175 -14 11 -43 37
-188 170 -225 205 -560 557 -730 766 -11 14 -41 49 -66 79 -266 319 -595 812
-834 1249 -62 114 -244 486 -289 592 -230 542 -404 1109 -491 1599 -8 47 -17
95 -19 107 -3 11 -8 43 -12 70 -3 26 -8 57 -10 68 -7 32 -20 136 -38 300 -11
96 -22 228 -32 395 -8 119 -7 572 0 705 11 183 25 363 31 394 1 9 6 48 9 86 4
39 9 77 11 85 2 8 6 40 10 71 3 31 7 65 9 75 4 20 15 89 22 139 2 17 6 41 9
55 3 14 7 39 10 55 5 34 4 25 40 200 21 101 80 344 130 535 2 8 18 60 35 115
17 55 33 107 35 115 11 45 141 406 193 535 99 250 287 652 380 817 12 21 38
68 58 105 145 265 366 606 569 879 62 83 119 159 128 170 9 10 60 72 113 138
53 65 108 130 121 145 14 14 55 61 91 104 37 42 68 77 70 77 1 0 -3 -10 -9
-22z m3291 -58 c58 -16 123 -36 144 -45 44 -19 51 -9 -69 -107 -166 -136 -330
-330 -510 -603 -39 -60 -159 -254 -265 -430 -106 -176 -227 -372 -268 -436
-75 -115 -75 -115 -146 -147 -331 -149 -780 -562 -999 -919 -103 -168 -201
-389 -272 -615 -20 -65 -40 -119 -43 -119 -4 -1 -33 -3 -66 -4 -111 -5 -265
45 -382 125 -55 38 -175 154 -222 217 l-32 41 20 54 c27 71 27 71 92 106 166
88 370 242 533 401 146 143 181 182 343 387 39 48 165 243 214 329 45 79 87
158 208 390 182 348 273 501 393 663 251 342 539 581 845 704 155 62 280 64
482 8z m5015 20 c82 -24 213 -86 315 -149 335 -208 641 -564 887 -1031 28 -52
76 -143 107 -202 179 -343 184 -352 268 -491 265 -441 679 -846 1071 -1047 16
-8 35 -30 43 -50 47 -110 140 -411 158 -510 2 -14 11 -59 20 -100 30 -145 39
-215 52 -380 9 -111 9 -402 1 -492 -4 -35 -10 -99 -14 -143 -15 -156 -7 -794
11 -905 3 -14 7 -65 11 -115 4 -49 8 -92 10 -95 2 -3 6 -39 10 -80 10 -106 11
-116 25 -205 6 -44 13 -91 15 -105 2 -14 6 -43 10 -65 3 -22 12 -80 21 -130 8
-49 17 -103 20 -120 3 -16 17 -90 31 -165 31 -166 31 -276 -2 -415 -24 -106
-59 -159 -125 -195 -97 -50 -247 -60 -336 -21 -53 24 -221 187 -250 243 -22
42 -63 181 -70 237 -3 25 -7 53 -9 61 -2 8 -6 33 -9 55 -5 37 -8 64 -21 215
-2 30 -7 111 -10 180 -10 222 -20 414 -30 564 -7 114 -15 254 -20 391 -10 249
-16 369 -30 635 -3 52 -8 133 -10 180 -7 132 -15 241 -20 290 -3 25 -7 77 -10
115 -3 39 -7 81 -10 95 -2 14 -7 50 -10 80 -4 48 -20 143 -40 245 -20 97 -49
208 -82 307 -20 62 -38 115 -38 118 -1 3 -5 14 -10 25 -4 11 -19 49 -33 85
-92 240 -229 474 -381 652 -251 291 -579 551 -838 664 l-75 32 -91 144 c-51
79 -97 153 -104 163 -415 689 -513 837 -677 1029 -69 80 -208 215 -279 270
-67 52 -71 48 70 95 99 33 125 39 188 48 22 3 42 7 45 10 11 11 191 -2 245
-17z m3083 -199 c164 -200 305 -391 471 -636 65 -96 311 -490 311 -498 0 -3
25 -49 56 -103 213 -377 472 -970 612 -1405 71 -218 160 -536 187 -667 2 -9 9
-39 15 -67 14 -61 19 -82 25 -118 3 -15 12 -58 20 -95 16 -80 52 -289 59 -352
3 -25 8 -56 10 -70 4 -24 15 -114 21 -175 2 -16 6 -50 9 -75 5 -43 7 -68 21
-250 21 -282 21 -708 0 -970 -3 -36 -8 -94 -11 -130 -3 -36 -7 -81 -9 -100 -2
-19 -7 -60 -10 -90 -4 -30 -8 -66 -10 -80 -2 -14 -9 -61 -15 -106 -6 -44 -13
-91 -15 -104 -3 -13 -7 -41 -10 -62 -3 -21 -15 -85 -26 -141 -11 -56 -22 -113
-25 -127 -3 -14 -7 -32 -9 -40 -2 -8 -7 -28 -9 -45 -38 -221 -236 -873 -341
-1120 -7 -16 -25 -61 -40 -100 -333 -829 -889 -1702 -1525 -2390 -73 -79 -419
-425 -495 -496 -200 -184 -533 -455 -729 -594 -15 -11 -47 -34 -70 -51 -121
-90 -522 -347 -676 -432 -25 -14 -79 -44 -120 -67 -117 -66 -443 -228 -596
-296 -219 -97 -622 -254 -631 -246 -5 6 93 270 131 352 43 93 96 182 152 255
43 56 180 196 207 212 12 6 26 -6 61 -51 219 -284 510 -318 742 -86 40 40 82
90 93 111 12 21 33 59 46 83 38 67 86 214 99 304 26 170 28 199 52 797 3 91 7
166 8 167 0 1 28 -19 60 -44 126 -94 230 -133 354 -130 70 2 98 8 143 28 145
68 219 214 221 438 1 68 -12 252 -17 261 -2 3 -6 30 -10 59 -6 51 -5 52 17 45
13 -4 54 -6 93 -6 291 6 526 259 579 623 8 55 9 177 1 245 l-7 61 33 7 c117
23 264 137 320 247 120 238 160 519 136 956 l-6 121 52 30 c62 35 146 122 177
182 38 75 72 185 73 238 0 10 12 12 41 9 85 -10 174 41 230 131 51 81 124 300
150 447 3 17 11 57 16 90 18 101 20 109 26 155 3 25 7 52 9 60 18 70 22 179
12 360 -8 139 -14 237 -22 415 -3 66 -8 145 -10 175 -2 30 -6 118 -10 195 -3
77 -9 148 -11 158 -10 34 6 15 71 -85 152 -232 335 -350 535 -344 79 2 113 15
169 62 41 34 86 124 99 195 10 54 8 217 -3 274 -6 28 -32 150 -40 187 -86 386
-300 926 -521 1315 -42 74 -75 135 -73 137 2 2 24 13 47 25 96 49 174 146 197
245 30 128 -5 353 -70 456 -23 37 -88 90 -109 90 -5 0 -17 7 -26 15 -9 8 -80
31 -158 50 -169 42 -279 79 -387 130 l-80 38 50 7 c60 9 160 37 196 56 40 20
95 77 132 136 92 146 95 395 6 529 -16 24 -85 100 -153 170 -110 111 -140 150
-258 330 -73 113 -138 214 -145 225 -6 10 -40 64 -74 119 -96 154 -229 374
-251 414 -18 35 -18 35 19 -8 21 -25 84 -101 141 -170z m-7113 -5 c137 -15
213 -27 377 -62 226 -48 527 -141 786 -245 68 -27 132 -49 144 -49 11 0 75 22
141 49 121 48 398 146 440 156 12 2 72 18 132 35 144 40 300 75 400 90 44 7
89 14 100 16 37 7 199 18 280 18 290 1 441 -61 645 -263 198 -198 318 -368
671 -956 79 -132 147 -244 152 -250 4 -5 38 -57 75 -115 72 -113 141 -215 157
-233 6 -7 28 -37 50 -67 22 -30 75 -97 118 -148 134 -160 177 -231 230 -377
28 -78 73 -272 82 -351 3 -28 7 -59 9 -70 22 -111 22 -615 1 -777 -2 -15 -6
-62 -10 -105 -3 -42 -8 -86 -10 -97 -2 -11 -7 -42 -10 -70 -10 -88 -34 -237
-55 -350 -12 -60 -23 -123 -26 -140 -10 -60 -93 -403 -122 -505 -24 -84 -58
-194 -106 -345 -2 -5 -6 -17 -9 -25 -4 -8 -26 -74 -51 -146 -59 -175 -145
-376 -167 -390 -6 -3 -25 39 -35 81 -2 6 -10 35 -19 65 -9 30 -18 62 -20 70
-9 37 -126 424 -150 500 -36 110 -73 150 -141 150 -111 0 -161 -90 -118 -211
14 -42 112 -367 189 -628 19 -67 49 -148 64 -180 91 -178 262 -207 393 -68 82
87 150 225 252 517 30 85 56 146 56 135 1 -11 3 -33 5 -50 2 -16 6 -79 9 -140
7 -120 10 -232 31 -984 5 -186 10 -320 20 -511 5 -102 7 -125 21 -280 9 -92 8
-187 -1 -495 -4 -132 -8 -285 -10 -340 -4 -134 -15 -419 -20 -530 -3 -49 -7
-148 -10 -220 -3 -71 -7 -179 -10 -240 -3 -60 -8 -159 -10 -220 -3 -60 -7
-157 -10 -215 -5 -107 -11 -250 -20 -445 -3 -60 -7 -159 -10 -220 -3 -60 -7
-166 -10 -235 -16 -414 -15 -393 -31 -532 -19 -165 -90 -343 -170 -424 -108
-109 -187 -105 -307 13 -52 51 -127 157 -127 179 0 5 -11 30 -25 57 -35 66
-73 214 -83 327 -12 134 -6 349 14 495 2 17 6 59 9 95 3 36 8 72 10 80 2 8 7
47 11 85 3 39 8 77 9 86 2 9 6 52 10 95 4 43 9 88 11 98 2 10 6 55 10 100 3
45 7 97 9 116 2 19 7 76 10 125 4 50 9 106 10 125 2 19 6 80 10 135 3 55 8
118 10 140 2 22 6 99 10 170 4 72 8 159 10 195 24 420 24 1029 0 1245 -17 153
-20 172 -29 203 -3 9 31 136 76 282 44 146 83 288 85 315 4 47 1 55 -46 128
-28 43 -51 80 -51 83 0 3 -16 30 -36 62 -56 86 -197 384 -243 510 -39 107 -76
242 -87 321 -2 20 -12 53 -21 73 -29 68 -124 94 -189 51 -28 -18 -63 -79 -59
-103 1 -8 5 -38 9 -67 3 -28 8 -57 11 -65 2 -7 6 -24 9 -38 30 -184 169 -517
334 -803 32 -54 66 -114 76 -133 l20 -34 -83 -278 c-86 -287 -221 -703 -246
-759 -8 -17 -15 -34 -15 -38 0 -4 -26 -59 -57 -123 -52 -106 -67 -126 -153
-212 -120 -119 -171 -188 -454 -610 -62 -93 -237 -319 -328 -425 -375 -435
-788 -682 -1258 -753 -25 -4 -126 -7 -225 -6 -144 1 -201 5 -284 23 -503 105
-945 413 -1390 971 -50 63 -158 207 -238 320 -216 302 -288 393 -365 465 -38
35 -82 81 -97 102 -96 135 -197 405 -367 978 -25 83 -58 194 -75 247 l-30 98
61 102 c81 136 215 407 267 538 64 164 117 360 129 475 8 82 -42 143 -125 149
-71 5 -125 -42 -136 -119 -21 -136 -72 -307 -143 -475 -34 -82 -149 -312 -188
-377 -10 -17 -31 -51 -45 -75 -14 -23 -41 -68 -61 -98 -27 -42 -35 -64 -33
-95 1 -22 41 -170 89 -329 93 -308 89 -287 70 -431 -26 -203 -26 -915 0 -1400
2 -27 6 -106 10 -175 4 -69 9 -150 11 -180 3 -30 7 -86 10 -125 5 -81 13 -189
20 -260 2 -27 7 -84 10 -125 4 -41 8 -86 10 -100 2 -14 7 -59 10 -100 3 -41 8
-86 10 -100 2 -14 7 -50 10 -80 3 -30 8 -66 10 -80 2 -14 9 -74 15 -135 7 -60
15 -141 20 -180 4 -38 7 -158 5 -265 -2 -174 -6 -206 -29 -294 -50 -185 -129
-333 -225 -418 -116 -103 -201 -96 -308 26 -67 76 -132 240 -149 375 -2 20 -6
52 -9 71 -6 42 -13 178 -20 353 -2 71 -7 172 -10 225 -3 54 -7 153 -10 222
-10 238 -22 523 -30 670 -6 111 -14 299 -20 455 -3 61 -7 162 -10 225 -19 443
-26 645 -41 1135 -3 110 -6 205 -6 210 -1 10 10 152 17 225 3 35 11 160 20
338 7 138 14 350 20 597 3 121 7 281 10 355 2 74 7 212 10 305 7 185 11 255
17 261 2 2 24 -54 48 -124 83 -242 156 -393 236 -481 61 -67 113 -94 184 -94
84 -1 142 37 199 128 36 57 46 86 258 800 35 117 36 128 20 167 -43 103 -199
103 -243 1 -15 -36 -180 -577 -188 -618 -8 -39 -48 -160 -55 -168 -5 -4 -26
29 -49 75 -56 114 -64 134 -117 288 -123 356 -154 456 -221 725 -9 33 -17 67
-20 75 -7 26 -82 388 -88 422 -45 281 -43 270 -50 333 -4 28 -9 69 -12 91 -3
23 -7 57 -9 75 -17 225 -20 305 -20 489 0 433 47 697 167 937 31 63 69 114
211 287 109 133 290 396 414 601 6 11 60 101 119 200 60 99 116 191 125 205 9
14 51 81 94 150 78 125 226 338 274 394 134 155 257 272 351 331 44 28 163 71
221 81 127 20 287 24 414 10z m6612 -1233 c4 -10 19 -40 35 -66 21 -36 25 -52
18 -65 -5 -9 -21 -43 -34 -74 -82 -191 -269 -380 -457 -462 l-56 -24 -38 44
c-20 25 -35 46 -34 48 2 1 24 13 49 25 125 63 257 176 350 301 42 56 143 251
143 276 0 20 16 17 24 -3z m228 -361 c212 -284 442 -451 775 -565 93 -32 228
-70 288 -82 38 -7 101 -56 107 -83 13 -63 15 -80 16 -132 1 -72 -12 -103 -53
-128 -41 -24 -121 -50 -168 -53 -19 -2 -41 -8 -49 -13 -16 -12 -360 -15 -438
-4 -354 52 -724 251 -1036 559 l-69 67 46 21 c178 78 407 310 480 485 9 22 18
37 20 35 2 -2 38 -50 81 -107z m-1656 -643 c179 -180 254 -275 346 -434 93
-161 201 -414 236 -550 4 -16 16 -61 27 -100 56 -196 83 -377 107 -720 3 -38
7 -101 10 -140 10 -123 20 -316 30 -540 8 -177 15 -334 20 -415 2 -41 7 -136
10 -210 3 -74 8 -150 10 -167 5 -32 4 -33 -88 -78 -212 -103 -460 -128 -688
-70 -24 6 -25 9 -27 93 -4 144 -18 261 -66 535 -20 118 -41 206 -49 215 -14
15 -13 25 4 92 23 91 105 479 113 535 3 22 8 51 10 65 3 14 7 41 10 60 3 19 8
46 10 60 3 14 7 48 11 75 3 28 10 84 15 125 27 214 34 340 35 600 0 199 -10
423 -19 439 -2 3 -7 31 -10 61 -18 155 -97 437 -147 526 -10 19 -19 38 -19 41
0 8 42 -30 109 -98z m-7693 -11 c-24 -55 -71 -200 -80 -248 -2 -14 -12 -60
-20 -102 -9 -43 -19 -99 -21 -125 -3 -26 -7 -59 -10 -72 -22 -117 -23 -718 -1
-837 2 -11 7 -50 11 -89 3 -38 8 -85 11 -102 2 -18 6 -48 8 -65 32 -241 98
-589 153 -813 24 -94 26 -116 17 -145 -7 -19 -14 -53 -17 -75 -4 -22 -15 -87
-26 -145 -11 -58 -22 -125 -26 -150 -3 -25 -8 -56 -10 -70 -9 -61 -16 -153
-20 -253 -2 -59 -6 -111 -9 -116 -3 -5 -27 -12 -53 -16 -27 -5 -55 -10 -63
-12 -8 -2 -63 -5 -121 -7 -96 -3 -136 0 -234 18 -58 11 -161 48 -242 88 l-82
41 4 36 c2 20 6 86 10 146 3 61 8 144 10 185 2 41 7 140 10 220 3 80 8 177 10
215 3 39 7 120 10 180 3 61 8 146 10 190 5 104 15 246 20 315 3 30 7 82 10
115 14 182 17 212 20 235 46 341 150 676 293 950 53 101 176 289 227 345 67
74 218 225 222 222 2 -2 -8 -29 -21 -59z m-1896 -623 c0 -2 -6 -24 -14 -47
-43 -130 -116 -461 -132 -603 -3 -33 -8 -69 -10 -79 -18 -98 -26 -532 -12
-671 27 -267 28 -718 2 -980 -2 -22 -6 -69 -9 -105 -5 -66 -12 -136 -20 -200
-3 -19 -7 -57 -10 -85 -3 -27 -8 -61 -10 -75 -2 -14 -9 -61 -15 -106 -6 -44
-12 -90 -14 -101 -3 -11 -7 -38 -10 -59 -6 -34 -23 -137 -41 -239 -16 -86 -75
-245 -92 -245 -10 0 -56 144 -84 265 -25 109 -30 133 -54 272 -25 151 -25 283
0 713 6 100 14 254 20 370 11 216 41 713 50 825 2 28 7 95 10 150 3 55 8 116
10 135 2 19 7 76 10 125 3 50 8 108 10 130 2 22 7 72 10 110 5 65 9 103 19
210 3 22 7 76 11 120 7 102 12 115 38 116 63 3 199 25 272 44 57 16 65 17 65
10z m11585 -25 c50 -10 120 -22 157 -26 76 -8 74 -4 83 -107 3 -38 8 -94 10
-125 3 -32 7 -75 10 -97 9 -82 21 -225 30 -355 3 -47 8 -105 10 -130 3 -25 7
-83 10 -130 3 -47 8 -112 11 -145 2 -33 6 -103 9 -155 3 -52 7 -122 10 -155 7
-88 14 -205 20 -335 3 -63 7 -144 10 -180 3 -36 7 -117 10 -180 3 -63 7 -149
10 -190 24 -379 25 -590 1 -720 -9 -52 -19 -108 -22 -125 -3 -16 -7 -37 -9
-45 -2 -8 -7 -29 -9 -46 -10 -56 -55 -220 -77 -280 l-22 -58 -24 54 c-46 103
-65 175 -98 380 -3 19 -10 60 -15 90 -9 57 -14 92 -25 170 -3 25 -8 61 -11 80
-5 38 -8 63 -19 155 -3 33 -8 74 -10 90 -2 17 -6 71 -10 120 -3 50 -8 99 -10
110 -8 39 -18 313 -19 480 0 160 9 357 20 435 9 64 12 534 3 595 -4 33 -11 94
-15 135 -3 41 -8 77 -9 80 -2 3 -6 30 -10 60 -10 87 -72 365 -105 474 -17 55
-30 101 -30 104 0 2 10 1 23 -2 12 -4 63 -15 112 -26z m-12227 -29 c14 -1 13
-23 -3 -176 -5 -42 -10 -102 -20 -220 -3 -38 -8 -90 -10 -115 -3 -25 -7 -81
-10 -125 -4 -44 -8 -100 -11 -125 -2 -25 -6 -82 -9 -127 -10 -153 -13 -172
-33 -200 -11 -15 -48 -77 -82 -138 -34 -60 -71 -122 -81 -137 -11 -15 -19 -29
-19 -32 0 -6 -96 -168 -136 -228 -73 -111 -166 -187 -252 -207 -41 -9 -44 -8
-53 17 -15 38 -10 226 6 253 2 3 7 20 10 37 27 152 145 535 236 760 81 202
250 533 367 720 28 46 36 52 60 48 15 -2 33 -5 40 -5z m12879 -116 c94 -156
258 -485 324 -650 138 -349 246 -734 256 -915 6 -129 -3 -163 -44 -154 -45 10
-125 52 -158 82 -34 32 -115 127 -115 136 0 3 -22 40 -48 83 -27 43 -95 159
-152 258 -57 99 -110 188 -118 197 -8 10 -16 37 -17 60 -3 57 -16 224 -20 268
-1 19 -6 71 -9 115 -10 118 -16 194 -21 250 -2 28 -7 82 -10 120 -4 39 -8 81
-10 95 -2 14 -7 57 -10 97 -6 69 -5 72 17 75 57 9 61 6 135 -117z m-11913 -60
c141 -140 287 -223 461 -262 11 -2 55 -7 98 -10 l78 -6 -5 -31 c-16 -106 -11
-102 -115 -85 -193 31 -339 114 -476 270 -109 123 -135 160 -135 188 0 12 2
21 4 21 3 0 43 -38 90 -85z m-124 -133 c0 -5 14 -24 31 -43 17 -19 45 -50 62
-69 123 -136 306 -242 469 -270 35 -6 72 -13 83 -15 11 -2 32 -4 47 -4 24 -1
27 -4 24 -33 -13 -121 -19 -156 -30 -153 -6 2 -29 6 -51 9 -235 31 -518 191
-666 377 l-30 38 16 73 c9 40 18 79 20 86 5 13 25 17 25 4z m104 -504 c161
-113 391 -200 575 -217 10 -1 8 -8 -9 -26 -21 -22 -32 -25 -95 -25 -40 0 -106
9 -148 19 -227 59 -538 289 -519 386 4 24 6 24 64 -31 33 -30 92 -78 132 -106z
m-19 -240 c176 -112 327 -160 510 -162 47 -1 79 -5 78 -11 0 -5 -4 -57 -7
-115 -4 -58 -9 -134 -11 -170 -5 -68 -12 -220 -20 -430 -3 -69 -7 -165 -10
-215 -2 -49 -7 -148 -10 -220 -4 -71 -8 -148 -10 -170 -6 -65 -20 -333 -30
-563 -3 -64 -7 -137 -10 -162 -2 -25 -7 -78 -10 -118 -4 -41 -8 -81 -10 -90
-6 -37 -16 -99 -20 -130 -7 -55 -44 -181 -66 -224 -11 -22 -64 -84 -117 -138
-78 -77 -108 -101 -152 -117 -103 -39 -281 -13 -358 52 -61 51 -100 175 -109
340 -4 95 -1 132 26 272 28 150 42 229 56 328 4 22 8 47 10 55 2 8 7 38 10 65
3 28 8 61 10 75 2 14 7 45 10 70 4 25 8 56 10 70 2 14 7 54 10 90 3 36 7 74 9
85 2 11 7 58 11 105 4 47 8 95 10 107 11 69 20 322 20 548 0 233 -5 348 -22
525 -7 74 -10 324 -5 361 l4 29 62 -49 c33 -27 93 -68 131 -93z m840 -1747
c75 -36 174 -66 275 -85 82 -16 293 -20 356 -6 97 20 100 20 100 -1 0 -15 -14
-24 -66 -40 -127 -40 -272 -44 -423 -14 -106 21 -314 128 -314 161 0 19 1 18
72 -15z m9271 12 c-5 -36 -208 -139 -316 -160 -161 -31 -290 -24 -442 24 -37
11 -48 19 -48 35 0 16 4 19 23 14 74 -21 316 -29 422 -14 95 14 285 75 335
108 22 14 29 12 26 -7z m-9320 -315 c15 -46 29 -87 30 -93 38 -161 56 -265 46
-265 -4 0 -35 14 -70 32 l-62 33 6 80 c11 134 12 157 13 228 1 37 3 67 5 67 2
0 17 -37 32 -82z m174 53 c30 -11 72 -22 93 -26 20 -4 40 -11 42 -16 10 -15
-99 -248 -111 -237 -1 2 -5 17 -8 33 -10 54 -14 69 -31 130 -9 33 -18 65 -19
70 -2 6 -4 15 -6 20 -1 6 -6 18 -11 28 -12 21 -15 21 51 -2z m8985 -67 c-21
-67 -47 -172 -49 -196 -1 -3 -4 -9 -7 -13 -7 -7 -105 187 -111 218 -2 16 9 22
67 37 39 10 81 23 95 28 14 5 26 9 27 8 2 -1 -8 -38 -22 -82z m179 -59 c4 -71
10 -151 12 -177 6 -46 6 -47 -35 -68 -23 -11 -53 -25 -67 -31 l-26 -9 6 47
c10 81 34 192 55 253 27 78 43 121 46 118 1 -2 6 -61 9 -133z m-8716 38 c-11
-27 -31 -75 -44 -108 -14 -37 -24 -54 -28 -45 -14 37 -56 171 -56 180 0 8 36
14 117 18 l32 2 -21 -47z m8189 33 c2 -2 -12 -47 -30 -101 l-33 -99 -38 95
c-21 52 -41 100 -43 107 -5 10 9 12 68 6 41 -3 75 -7 76 -8z m-228 -151 c39
-100 88 -272 79 -280 -6 -6 -97 21 -118 34 -10 7 -15 35 -16 108 -1 54 -3 132
-4 173 -1 41 -1 80 -1 85 2 18 20 -19 60 -120z m-7814 48 c-2 -32 -3 -110 -4
-174 l-1 -116 -37 -16 c-47 -19 -96 -30 -90 -20 3 4 8 25 11 45 12 76 106 338
121 338 2 0 1 -26 0 -57z m-285 -324 c0 -17 -23 -18 -115 -5 -108 16 -125 19
-125 23 0 2 17 30 38 61 22 31 54 84 72 117 18 33 35 64 38 70 6 10 91 -238
92 -266z m8532 83 c23 -34 39 -65 36 -67 -4 -4 -102 -20 -179 -28 -63 -7 -63
-1 -19 134 23 68 44 131 46 139 3 8 19 -11 40 -50 20 -36 54 -93 76 -128z
m-8902 -168 c176 -57 419 -79 565 -50 75 15 85 11 78 -29 -4 -19 -13 -24 -46
-28 -72 -8 -390 0 -437 11 -25 6 -61 13 -80 16 -50 8 -210 55 -242 72 -22 12
-28 21 -28 49 l0 35 58 -26 c31 -14 91 -37 132 -50z m9262 9 c-7 -21 -185 -74
-362 -108 -50 -10 -376 -15 -430 -7 -42 7 -44 9 -48 43 l-3 36 53 -15 c68 -20
346 -22 433 -3 93 20 217 58 287 90 l63 28 6 -26 c3 -14 3 -32 1 -38z m-9340
-187 c68 -20 121 -32 168 -39 3 0 21 -4 40 -8 83 -19 262 -27 420 -19 l85 5
-1 -30 c-2 -69 -16 -333 -19 -365 -2 -19 -6 -75 -9 -125 -4 -49 -8 -101 -10
-115 -3 -14 -7 -56 -11 -95 -3 -38 -8 -79 -10 -90 -2 -11 -7 -45 -10 -76 -3
-31 -8 -67 -10 -80 -3 -13 -7 -42 -10 -64 -3 -22 -7 -51 -10 -65 -3 -14 -8
-38 -11 -55 -57 -321 -167 -693 -268 -909 -81 -172 -187 -305 -287 -357 -67
-36 -177 -34 -241 4 -166 100 -250 367 -193 617 3 14 8 36 11 50 7 35 51 190
82 285 14 44 27 85 28 90 2 6 14 52 28 103 33 123 80 396 112 646 3 27 7 56 9
65 20 106 27 489 12 605 -6 50 -5 57 8 53 8 -4 52 -17 97 -31z m9320 -49 c-9
-68 -8 -350 1 -427 3 -25 9 -74 12 -110 3 -36 8 -72 10 -80 3 -8 7 -35 9 -60
3 -25 10 -77 16 -115 6 -39 13 -81 15 -95 48 -304 63 -378 119 -557 73 -235
85 -277 111 -399 4 -16 8 -72 10 -124 7 -156 -42 -302 -137 -406 -64 -69 -131
-98 -213 -92 -194 16 -349 227 -498 678 -36 107 -74 238 -86 290 -12 52 -26
111 -32 130 -5 19 -11 49 -14 65 -10 56 -35 190 -40 215 -5 23 -30 210 -40
290 -2 19 -6 53 -9 75 -12 95 -31 365 -42 583 l-6 134 47 -6 c60 -9 290 -9
375 -1 36 4 115 17 175 31 61 13 121 27 133 30 13 2 38 11 55 18 18 7 33 9 35
5 2 -4 -1 -36 -6 -72z m388 -409 c91 -72 200 -112 325 -117 33 -2 62 -5 65 -8
3 -2 5 -120 5 -261 0 -207 -4 -274 -18 -346 -34 -169 -84 -292 -139 -343 -21
-19 -127 -68 -133 -61 -11 13 -111 357 -121 418 -3 14 -7 32 -9 40 -3 8 -7 33
-10 55 -4 22 -8 47 -10 55 -2 8 -7 38 -11 65 -3 28 -8 57 -9 67 -2 9 -7 38
-11 65 -3 26 -8 57 -10 68 -4 20 -21 156 -29 225 -2 19 -6 72 -10 118 l-7 83
44 -43 c23 -24 63 -60 88 -80z m-10075 5 c-3 -54 -8 -113 -11 -130 -5 -42 -11
-85 -19 -148 -4 -27 -13 -90 -21 -140 -8 -49 -17 -101 -19 -115 -23 -145 -40
-222 -89 -395 -1 -5 -8 -30 -15 -54 -7 -24 -23 -53 -36 -65 -23 -22 -86 -46
-118 -46 -49 0 -133 181 -161 350 -3 19 -9 46 -12 60 -8 31 -13 447 -7 511 l5
46 56 2 c156 6 316 80 412 191 14 16 29 29 33 29 5 1 6 -43 2 -96z m7691
-1020 c-7 -348 -14 -542 -21 -588 -4 -20 -17 -38 -42 -55 -38 -26 -222 -205
-283 -275 -19 -22 -67 -80 -106 -130 -285 -362 -488 -676 -649 -1000 -106
-214 -103 -207 -176 -427 -74 -224 -113 -318 -191 -471 -99 -190 -207 -299
-314 -313 -89 -11 -211 62 -269 160 -60 103 -80 199 -80 391 1 175 10 246 60
491 7 30 74 233 92 274 67 157 58 147 166 202 85 44 342 207 357 227 3 3 30
26 60 51 87 70 211 189 299 286 103 113 118 129 193 224 96 121 223 298 373
520 151 223 186 268 280 359 86 83 154 181 211 306 21 46 41 85 43 85 2 0 1
-143 -3 -317z m-5391 195 c56 -112 120 -200 196 -272 90 -84 123 -125 309
-386 85 -118 176 -244 204 -280 27 -36 63 -83 80 -105 17 -22 33 -42 36 -45 3
-3 38 -45 79 -95 98 -119 364 -383 471 -469 120 -95 278 -200 396 -263 l101
-53 42 -91 c70 -151 145 -401 166 -557 3 -20 8 -53 11 -72 13 -77 11 -336 -2
-414 -20 -111 -70 -212 -136 -271 -61 -55 -97 -72 -165 -81 -42 -5 -57 -1
-113 28 -87 45 -157 130 -241 294 -77 150 -113 239 -198 494 -91 271 -250 586
-446 885 -264 402 -529 724 -735 896 -36 29 -67 55 -69 56 -4 3 -6 32 -17 328
-7 191 -12 545 -7 545 1 0 18 -33 38 -72z m6687 -903 c57 -135 130 -262 201
-346 l58 -69 29 -138 c57 -279 62 -505 12 -572 -42 -56 -113 -50 -218 18 -119
78 -166 153 -209 338 -23 97 -25 121 -20 229 8 154 12 241 21 450 4 94 8 188
9 210 1 22 3 69 4 105 l2 65 35 -95 c19 -52 53 -140 76 -195z m-7905 203 c1
-98 12 -368 18 -448 6 -94 19 -400 17 -436 -1 -49 -40 -193 -68 -253 -69 -153
-292 -278 -364 -205 -69 68 -57 377 26 699 3 11 6 25 8 32 1 6 15 24 30 40 92
91 215 329 296 571 14 39 27 72 30 72 3 0 6 -33 7 -72z m1400 -670 c249 -298
531 -734 684 -1053 32 -67 87 -207 123 -311 155 -459 268 -678 422 -825 178
-169 372 -205 580 -108 34 16 64 29 67 29 8 0 122 -240 162 -340 20 -52 41
-104 46 -115 39 -90 134 -433 164 -594 25 -130 26 -140 31 -247 3 -89 1 -106
-19 -145 -63 -126 -289 -127 -427 -3 -94 85 -159 212 -264 514 -32 91 -62 174
-66 185 -5 11 -21 54 -36 95 -76 211 -247 582 -355 773 -97 171 -285 447 -385
567 -137 163 -320 353 -468 485 -77 69 -281 235 -322 261 -18 12 -23 31 -33
129 -7 62 -14 127 -16 142 -5 43 -15 142 -20 208 -3 33 -7 80 -10 105 -7 74
-15 172 -30 375 l-5 70 54 -57 c30 -31 85 -94 123 -140z m5158 85 c-6 -99 -9
-131 -19 -258 -16 -192 -18 -207 -36 -380 -22 -206 -31 -269 -39 -275 -126
-89 -357 -287 -491 -420 -171 -169 -194 -196 -373 -420 -33 -41 -120 -166
-178 -255 -227 -346 -411 -743 -594 -1275 -121 -353 -211 -501 -343 -569 -50
-25 -81 -32 -160 -36 -52 -2 -72 2 -115 24 -76 38 -92 72 -93 196 0 55 3 114
7 130 4 17 10 48 13 70 26 199 135 572 242 827 24 58 131 279 139 286 2 2 33
-10 68 -27 203 -97 424 -53 591 116 151 152 272 395 421 843 103 308 303 671
592 1072 101 139 90 125 209 268 82 98 155 179 162 180 2 0 1 -44 -3 -97z
m-2970 -839 c22 -3 42 -7 45 -9 12 -7 155 -18 270 -19 136 -3 287 13 421 43
l36 8 -34 -106 c-19 -58 -37 -114 -39 -123 -2 -10 -6 -26 -8 -35 -13 -52 -46
-236 -52 -288 -3 -33 -8 -69 -11 -80 -6 -30 -4 -316 2 -350 30 -164 44 -213
86 -296 16 -32 24 -60 19 -65 -18 -19 -129 -245 -184 -374 -74 -174 -166 -449
-208 -620 l-32 -136 -37 146 c-76 300 -170 555 -306 828 l-86 173 31 67 c27
60 47 120 58 175 2 10 5 26 8 35 17 57 24 306 11 413 -19 167 -32 249 -55 344
-19 77 -70 253 -84 286 -7 15 -2 15 51 3 32 -7 76 -16 98 -20z m-2056 -579
c252 -231 522 -553 598 -715 92 -195 184 -566 186 -750 1 -114 -8 -165 -38
-215 -42 -72 -120 -83 -205 -30 -91 57 -126 117 -220 375 -61 166 -141 329
-216 442 -63 95 -228 273 -320 347 l-42 34 19 66 c20 67 25 89 34 139 3 15 7
36 10 47 11 49 19 190 18 298 l-1 118 66 -58 c37 -32 87 -76 111 -98z m4905
-30 c3 -88 8 -176 11 -195 16 -98 28 -152 47 -218 l21 -73 -39 -32 c-79 -64
-214 -205 -283 -297 -85 -113 -179 -299 -251 -495 -92 -252 -147 -338 -246
-384 -137 -65 -218 27 -217 244 1 212 97 588 204 798 37 74 184 268 303 400
140 156 438 438 443 419 1 -4 4 -79 7 -167z"/>
<path d="M5843 11661 c-47 -22 -73 -62 -73 -115 0 -52 15 -81 67 -131 84 -81
254 -146 533 -205 79 -17 146 -32 147 -34 2 -2 6 -30 9 -62 8 -83 49 -243 85
-327 115 -273 297 -427 501 -427 177 0 344 100 453 270 44 68 105 209 105 241
0 24 17 25 25 0 34 -107 39 -360 10 -533 -2 -13 -6 -41 -9 -63 -3 -22 -18 -95
-32 -162 -30 -138 -27 -177 14 -215 39 -36 79 -47 122 -34 65 20 89 49 109
131 12 51 39 182 47 231 3 20 7 44 9 54 20 102 27 434 12 539 -10 73 -51 192
-83 243 -99 157 -214 199 -813 294 -18 3 -41 7 -50 9 -9 1 -36 6 -61 10 -25 3
-58 9 -75 11 -16 3 -46 7 -65 10 -19 2 -98 15 -175 29 -77 14 -153 27 -170 30
-16 3 -41 8 -55 12 -14 3 -27 7 -30 8 -3 0 -23 5 -45 10 -58 12 -56 12 -105
25 -115 30 -195 66 -239 108 -25 23 -61 47 -81 52 -44 12 -37 13 -87 -9z
m1132 -555 c28 -4 91 -14 140 -22 124 -21 137 -23 165 -30 14 -3 42 -8 63 -11
34 -5 37 -8 36 -37 0 -17 -7 -49 -15 -71 -7 -22 -11 -29 -9 -15 18 91 18 98
-1 103 -22 7 -121 26 -219 42 -16 3 -39 7 -50 9 -19 3 -69 11 -145 21 -19 3
-44 7 -55 9 -11 3 -26 5 -32 5 -7 1 -13 5 -13 10 0 5 19 5 43 1 23 -5 65 -11
92 -14z"/>
<path d="M12078 11665 c-21 -7 -48 -26 -62 -42 -14 -17 -50 -42 -79 -56 -51
-24 -236 -80 -308 -92 -19 -3 -54 -11 -79 -16 -25 -6 -58 -12 -75 -15 -16 -2
-41 -6 -55 -9 -46 -10 -81 -16 -240 -40 -87 -13 -172 -27 -189 -30 -17 -3 -46
-7 -63 -10 -18 -3 -58 -10 -88 -15 -30 -5 -71 -12 -90 -15 -224 -36 -391 -79
-482 -126 -95 -49 -173 -166 -209 -315 -40 -161 -30 -502 21 -729 5 -22 12
-56 15 -75 11 -62 28 -124 40 -150 43 -84 151 -96 215 -23 36 41 38 76 10 195
-10 46 -21 97 -24 113 -12 81 -19 121 -21 136 -16 84 -22 362 -10 419 3 14 8
41 11 60 3 19 12 43 19 53 11 16 13 14 20 -20 30 -162 171 -359 317 -441 130
-73 293 -82 414 -22 196 96 355 356 400 653 3 21 7 46 9 55 2 9 4 29 4 44 1
28 13 32 137 54 60 10 271 66 324 85 153 56 269 141 288 212 30 109 -64 199
-170 162z m-893 -547 c-2 -7 -6 -26 -8 -43 -7 -46 -26 -108 -38 -125 -9 -12
-9 -11 -4 5 17 44 37 146 31 153 -4 3 -47 -1 -96 -9 -50 -8 -90 -12 -90 -8 0
3 44 13 98 21 53 9 100 16 104 17 4 0 5 -5 3 -11z m-235 -35 c-14 -2 -40 -8
-57 -13 -18 -5 -33 -5 -33 0 0 9 38 17 85 17 25 0 26 0 5 -4z m-100 -11 c0 -4
-25 -12 -55 -18 -30 -5 -55 -7 -55 -3 0 3 24 11 53 16 28 6 53 11 55 12 1 0 2
-3 2 -7z m-140 -32 c-14 -4 -36 -8 -50 -8 -22 0 -22 1 5 8 17 4 39 8 50 8 16
0 15 -2 -5 -8z"/>
<path d="M7703 9020 c-48 -29 -65 -72 -69 -173 -14 -347 225 -672 666 -909 36
-19 96 -58 134 -87 85 -65 196 -121 306 -155 l85 -27 0 -224 -1 -223 -42 -85
c-47 -95 -95 -149 -199 -223 -37 -27 -77 -56 -88 -65 -77 -64 -325 -272 -347
-292 -81 -72 -174 -154 -194 -172 -12 -11 -59 -54 -104 -95 -45 -41 -99 -90
-119 -108 -79 -72 -193 -112 -306 -108 -67 2 -86 8 -163 47 -97 49 -146 55
-190 22 -40 -29 -64 -81 -59 -125 5 -35 42 -96 60 -97 4 -1 25 -13 46 -27 21
-14 72 -36 112 -50 152 -51 299 -49 455 8 103 37 163 77 290 193 157 145 160
147 339 304 72 62 144 125 160 140 54 47 269 216 300 235 17 11 65 55 109 99
69 71 79 78 89 62 18 -33 123 -131 194 -181 113 -80 259 -202 537 -448 56 -49
103 -92 106 -95 3 -3 48 -44 100 -91 52 -47 109 -98 125 -113 38 -36 164 -100
236 -121 114 -33 244 -37 352 -10 96 23 226 92 254 133 44 65 19 164 -48 191
-52 22 -82 19 -146 -16 -146 -78 -279 -82 -415 -13 -32 17 -156 120 -248 209
-64 61 -436 385 -531 462 -31 26 -99 78 -151 117 -115 85 -164 138 -209 228
l-34 68 0 225 0 225 25 3 c154 17 350 101 493 210 33 24 89 60 125 80 407 214
645 530 651 864 2 106 -10 154 -47 191 -44 44 -100 47 -182 10 -156 -71 -404
-146 -555 -168 -22 -4 -47 -8 -55 -10 -8 -3 -32 -7 -54 -11 -21 -3 -48 -7 -60
-10 -39 -7 -250 -33 -331 -41 -109 -9 -158 -7 -300 12 -16 2 -68 9 -115 15
-133 17 -111 14 -420 75 -93 18 -320 95 -409 139 -65 31 -114 33 -158 6z
m2397 -355 c-7 -20 -14 -34 -16 -32 -3 2 0 16 5 31 8 19 7 26 -2 26 -8 0 -7 4
3 10 21 13 23 6 10 -35z m-2080 5 c96 -29 244 -67 340 -85 174 -33 275 -49
395 -61 33 -3 71 -8 85 -10 14 -3 72 -7 129 -9 110 -5 148 -14 65 -16 -27 -1
-52 -1 -55 -1 -3 1 -41 4 -85 7 -43 3 -92 8 -109 10 -16 2 -57 7 -90 11 -33 3
-67 7 -75 9 -8 1 -35 6 -60 10 -66 10 -93 14 -116 19 -12 2 -37 7 -55 10 -139
22 -451 106 -473 127 -16 15 4 11 104 -21z m2000 0 c-8 -5 -19 -10 -25 -10 -5
0 -3 5 5 10 8 5 20 10 25 10 6 0 3 -5 -5 -10z m-75 -19 c-6 -5 -23 -12 -40
-15 -28 -6 -28 -5 5 8 43 18 46 18 35 7z m-95 -31 c-34 -11 -60 -11 -35 0 11
5 29 8 40 8 16 0 15 -2 -5 -8z m-105 -26 c-27 -7 -54 -13 -60 -13 -17 2 69 27
90 27 11 0 -2 -6 -30 -14z m-75 -14 c0 -5 -3 -9 -7 -8 -5 1 -48 -5 -98 -15
-49 -9 -110 -19 -135 -22 -24 -4 -48 -9 -52 -11 -5 -3 -8 0 -8 5 0 6 10 11 23
12 12 0 33 2 47 5 14 2 65 11 115 19 49 9 91 18 94 20 8 9 21 5 21 -5z m-320
-49 c0 -5 -13 -11 -30 -13 -16 -3 -30 -1 -30 3 0 4 12 10 28 12 15 2 28 5 30
6 1 0 2 -3 2 -8z m-71 -15 c-2 -2 -38 -7 -79 -11 -41 -3 -83 -9 -92 -11 -10
-3 -18 -1 -18 5 0 10 44 16 144 19 27 1 47 0 45 -2z"/>
</g>
</svg>
